<mxfile host="app.diagrams.net" modified="2023-10-12T12:26:10.877Z" agent="Mozilla/5.0 (Windows NT 10.0; Win64; x64) AppleWebKit/537.36 (KHTML, like Gecko) Chrome/117.0.0.0 Safari/537.36" etag="sm-_todo1OChlwt0JVN9" version="22.0.4" type="github">
  <diagram name="Page-1" id="QsRVruqWaBJmwfJ9w71_">
    <mxGraphModel dx="925" dy="489" grid="0" gridSize="10" guides="1" tooltips="1" connect="1" arrows="1" fold="1" page="1" pageScale="1" pageWidth="827" pageHeight="1169" math="0" shadow="0">
      <root>
        <mxCell id="0" />
        <mxCell id="1" parent="0" />
        <mxCell id="a_5DNg6ZGiHQJM3C0LmD-1" value="&lt;font style=&quot;font-size: 19px;&quot;&gt;1&lt;/font&gt;" style="ellipse;whiteSpace=wrap;html=1;" parent="1" vertex="1">
          <mxGeometry x="360" y="240" width="40" height="40" as="geometry" />
        </mxCell>
        <mxCell id="a_5DNg6ZGiHQJM3C0LmD-2" value="&lt;span style=&quot;font-size: 19px;&quot;&gt;2&lt;/span&gt;" style="ellipse;whiteSpace=wrap;html=1;" parent="1" vertex="1">
          <mxGeometry x="480" y="240" width="40" height="40" as="geometry" />
        </mxCell>
        <mxCell id="a_5DNg6ZGiHQJM3C0LmD-5" value="&lt;span style=&quot;font-size: 19px;&quot;&gt;5&lt;/span&gt;" style="ellipse;whiteSpace=wrap;html=1;" parent="1" vertex="1">
          <mxGeometry x="420" y="300" width="40" height="40" as="geometry" />
        </mxCell>
        <mxCell id="a_5DNg6ZGiHQJM3C0LmD-6" value="&lt;font style=&quot;font-size: 19px;&quot;&gt;4&lt;/font&gt;" style="ellipse;whiteSpace=wrap;html=1;" parent="1" vertex="1">
          <mxGeometry x="360" y="360" width="40" height="40" as="geometry" />
        </mxCell>
        <mxCell id="a_5DNg6ZGiHQJM3C0LmD-7" value="&lt;font style=&quot;font-size: 19px;&quot;&gt;3&lt;/font&gt;" style="ellipse;whiteSpace=wrap;html=1;" parent="1" vertex="1">
          <mxGeometry x="480" y="360" width="40" height="40" as="geometry" />
        </mxCell>
        <mxCell id="a_5DNg6ZGiHQJM3C0LmD-8" value="11/0" style="text;html=1;align=center;verticalAlign=middle;resizable=0;points=[];autosize=1;strokeColor=none;fillColor=none;" parent="1" vertex="1">
          <mxGeometry x="505" y="378" width="50" height="30" as="geometry" />
        </mxCell>
        <mxCell id="a_5DNg6ZGiHQJM3C0LmD-9" value="10/1" style="text;html=1;align=center;verticalAlign=middle;resizable=0;points=[];autosize=1;strokeColor=none;fillColor=none;" parent="1" vertex="1">
          <mxGeometry x="330" y="388" width="50" height="30" as="geometry" />
        </mxCell>
        <mxCell id="a_5DNg6ZGiHQJM3C0LmD-10" value="00/1" style="text;html=1;align=center;verticalAlign=middle;resizable=0;points=[];autosize=1;strokeColor=none;fillColor=none;" parent="1" vertex="1">
          <mxGeometry x="430" y="330" width="50" height="30" as="geometry" />
        </mxCell>
        <mxCell id="a_5DNg6ZGiHQJM3C0LmD-11" value="00/0" style="text;html=1;align=center;verticalAlign=middle;resizable=0;points=[];autosize=1;strokeColor=none;fillColor=none;" parent="1" vertex="1">
          <mxGeometry x="330" y="210" width="50" height="30" as="geometry" />
        </mxCell>
        <mxCell id="a_5DNg6ZGiHQJM3C0LmD-12" value="01/0" style="text;html=1;align=center;verticalAlign=middle;resizable=0;points=[];autosize=1;strokeColor=none;fillColor=none;" parent="1" vertex="1">
          <mxGeometry x="505" y="210" width="50" height="30" as="geometry" />
        </mxCell>
        <mxCell id="a_5DNg6ZGiHQJM3C0LmD-13" value="AB/Q1" style="text;html=1;align=center;verticalAlign=middle;resizable=0;points=[];autosize=1;strokeColor=none;fillColor=none;" parent="1" vertex="1">
          <mxGeometry x="405" y="190" width="60" height="30" as="geometry" />
        </mxCell>
        <mxCell id="a_5DNg6ZGiHQJM3C0LmD-14" value="" style="endArrow=classic;html=1;entryX=0;entryY=0;entryDx=0;entryDy=0;curved=1;exitX=1;exitY=0;exitDx=0;exitDy=0;" parent="1" source="a_5DNg6ZGiHQJM3C0LmD-1" target="a_5DNg6ZGiHQJM3C0LmD-2" edge="1">
          <mxGeometry width="50" height="50" relative="1" as="geometry">
            <mxPoint x="400" y="300" as="sourcePoint" />
            <mxPoint x="470" y="260" as="targetPoint" />
            <Array as="points">
              <mxPoint x="440" y="230" />
            </Array>
          </mxGeometry>
        </mxCell>
        <mxCell id="a_5DNg6ZGiHQJM3C0LmD-16" value="" style="endArrow=classic;html=1;rounded=0;exitX=0.5;exitY=1;exitDx=0;exitDy=0;entryX=0.5;entryY=0;entryDx=0;entryDy=0;" parent="1" source="a_5DNg6ZGiHQJM3C0LmD-1" target="a_5DNg6ZGiHQJM3C0LmD-6" edge="1">
          <mxGeometry width="50" height="50" relative="1" as="geometry">
            <mxPoint x="370" y="300" as="sourcePoint" />
            <mxPoint x="450" y="300" as="targetPoint" />
          </mxGeometry>
        </mxCell>
        <mxCell id="a_5DNg6ZGiHQJM3C0LmD-19" value="" style="endArrow=classic;html=1;exitX=0.049;exitY=0.728;exitDx=0;exitDy=0;curved=1;entryX=1;entryY=1;entryDx=0;entryDy=0;exitPerimeter=0;" parent="1" source="a_5DNg6ZGiHQJM3C0LmD-2" target="a_5DNg6ZGiHQJM3C0LmD-1" edge="1">
          <mxGeometry width="50" height="50" relative="1" as="geometry">
            <mxPoint x="399" y="280" as="sourcePoint" />
            <mxPoint x="430" y="270" as="targetPoint" />
            <Array as="points">
              <mxPoint x="439" y="290" />
            </Array>
          </mxGeometry>
        </mxCell>
        <mxCell id="a_5DNg6ZGiHQJM3C0LmD-20" value="" style="endArrow=classic;html=1;entryX=1;entryY=0;entryDx=0;entryDy=0;curved=1;exitX=1;exitY=1;exitDx=0;exitDy=0;" parent="1" source="a_5DNg6ZGiHQJM3C0LmD-2" target="a_5DNg6ZGiHQJM3C0LmD-7" edge="1">
          <mxGeometry width="50" height="50" relative="1" as="geometry">
            <mxPoint x="520" y="360" as="sourcePoint" />
            <mxPoint x="612" y="360" as="targetPoint" />
            <Array as="points">
              <mxPoint x="540" y="320" />
            </Array>
          </mxGeometry>
        </mxCell>
        <mxCell id="a_5DNg6ZGiHQJM3C0LmD-21" value="" style="endArrow=classic;html=1;entryX=1;entryY=1;entryDx=0;entryDy=0;curved=1;exitX=0;exitY=1;exitDx=0;exitDy=0;" parent="1" source="a_5DNg6ZGiHQJM3C0LmD-7" target="a_5DNg6ZGiHQJM3C0LmD-6" edge="1">
          <mxGeometry width="50" height="50" relative="1" as="geometry">
            <mxPoint x="388" y="434" as="sourcePoint" />
            <mxPoint x="480" y="434" as="targetPoint" />
            <Array as="points">
              <mxPoint x="440" y="420" />
            </Array>
          </mxGeometry>
        </mxCell>
        <mxCell id="a_5DNg6ZGiHQJM3C0LmD-22" value="" style="endArrow=classic;html=1;entryX=0.312;entryY=1.012;entryDx=0;entryDy=0;curved=1;exitX=0;exitY=0;exitDx=0;exitDy=0;entryPerimeter=0;" parent="1" source="a_5DNg6ZGiHQJM3C0LmD-7" target="a_5DNg6ZGiHQJM3C0LmD-2" edge="1">
          <mxGeometry width="50" height="50" relative="1" as="geometry">
            <mxPoint x="439" y="347" as="sourcePoint" />
            <mxPoint x="439" y="439" as="targetPoint" />
            <Array as="points">
              <mxPoint x="465" y="320" />
            </Array>
          </mxGeometry>
        </mxCell>
        <mxCell id="a_5DNg6ZGiHQJM3C0LmD-23" value="" style="endArrow=classic;html=1;entryX=0.028;entryY=0.307;entryDx=0;entryDy=0;curved=1;exitX=0.996;exitY=0.338;exitDx=0;exitDy=0;exitPerimeter=0;entryPerimeter=0;" parent="1" source="a_5DNg6ZGiHQJM3C0LmD-6" target="a_5DNg6ZGiHQJM3C0LmD-7" edge="1">
          <mxGeometry width="50" height="50" relative="1" as="geometry">
            <mxPoint x="485" y="362" as="sourcePoint" />
            <mxPoint x="393" y="362" as="targetPoint" />
            <Array as="points">
              <mxPoint x="440" y="360" />
            </Array>
          </mxGeometry>
        </mxCell>
        <mxCell id="a_5DNg6ZGiHQJM3C0LmD-24" value="" style="endArrow=classic;html=1;exitX=0.054;exitY=0.722;exitDx=0;exitDy=0;entryX=0.733;entryY=0.022;entryDx=0;entryDy=0;curved=1;entryPerimeter=0;exitPerimeter=0;" parent="1" source="a_5DNg6ZGiHQJM3C0LmD-5" target="a_5DNg6ZGiHQJM3C0LmD-6" edge="1">
          <mxGeometry width="50" height="50" relative="1" as="geometry">
            <mxPoint x="370" y="360" as="sourcePoint" />
            <mxPoint x="420" y="310" as="targetPoint" />
            <Array as="points">
              <mxPoint x="400" y="340" />
            </Array>
          </mxGeometry>
        </mxCell>
        <mxCell id="a_5DNg6ZGiHQJM3C0LmD-25" value="" style="endArrow=classic;html=1;rounded=0;exitX=1;exitY=0;exitDx=0;exitDy=0;entryX=0;entryY=1;entryDx=0;entryDy=0;" parent="1" source="a_5DNg6ZGiHQJM3C0LmD-5" target="a_5DNg6ZGiHQJM3C0LmD-2" edge="1">
          <mxGeometry width="50" height="50" relative="1" as="geometry">
            <mxPoint x="436" y="344" as="sourcePoint" />
            <mxPoint x="404" y="376" as="targetPoint" />
          </mxGeometry>
        </mxCell>
        <mxCell id="a_5DNg6ZGiHQJM3C0LmD-26" value="" style="endArrow=classic;html=1;exitX=0.954;exitY=0.18;exitDx=0;exitDy=0;entryX=0.307;entryY=0.964;entryDx=0;entryDy=0;curved=1;exitPerimeter=0;entryPerimeter=0;" parent="1" source="a_5DNg6ZGiHQJM3C0LmD-6" target="a_5DNg6ZGiHQJM3C0LmD-5" edge="1">
          <mxGeometry width="50" height="50" relative="1" as="geometry">
            <mxPoint x="456" y="350" as="sourcePoint" />
            <mxPoint x="424" y="382" as="targetPoint" />
            <Array as="points">
              <mxPoint x="420" y="360" />
            </Array>
          </mxGeometry>
        </mxCell>
      </root>
    </mxGraphModel>
  </diagram>
</mxfile>
